<?xml version="1.0" encoding="UTF-8" standalone="no"?>
<!-- Created with Inkscape (http://www.inkscape.org/) -->

<svg
   width="177.38632mm"
   height="65.927849mm"
   viewBox="0 0 177.38632 65.927849"
   version="1.1"
   id="svg5"
   xmlns="http://www.w3.org/2000/svg"
   xmlns:svg="http://www.w3.org/2000/svg">
  <defs
     id="defs2" />
  <g
     id="layer1"
     transform="translate(-31.206971,-54.32986)">
    <g
       id="g896"
       transform="translate(21.154377,-78.140321)">
      <path
         style="fill:#934f5e;stroke-width:0.0525979"
         d="m 10.052594,198.36917 c -4e-6,-0.0357 5.310688,-0.0354 12.623496,5.3e-4 1.518764,0.007 -0.700209,0.0193 -4.931052,0.0263 -4.230842,0.007 -7.692442,-0.005 -7.692444,-0.0268 z m 66.878213,7e-4 c 5.252946,-0.0361 9.230945,-0.0364 9.230934,-6.8e-4 0,0.0217 -2.526676,0.0338 -5.614829,0.0269 -3.088154,-0.007 -4.715401,-0.0187 -3.616105,-0.0262 z m 36.465243,-5.52286 c 0.15285,-0.0107 0.38954,-0.0106 0.52598,0 0.13645,0.0108 0.0114,0.0195 -0.2779,0.0194 -0.28929,0 -0.40092,-0.009 -0.24808,-0.0196 z m 9.54476,0 c 0.13741,-0.0108 0.36226,-0.0108 0.49968,0 0.13741,0.0108 0.025,0.0197 -0.24984,0.0197 -0.27483,0 -0.38726,-0.009 -0.24984,-0.0197 z m 30.40157,0 c 0.13741,-0.0108 0.36227,-0.0108 0.49968,0 0.13741,0.0108 0.025,0.0197 -0.24984,0.0197 -0.27482,0 -0.38725,-0.009 -0.24984,-0.0197 z m 9.60088,0 c 0.15285,-0.0107 0.38954,-0.0106 0.52598,0 0.13644,0.0108 0.0114,0.0195 -0.2779,0.0194 -0.28929,0 -0.40093,-0.009 -0.24808,-0.0196 z m 14.78,0 c 0.15285,-0.0107 0.38954,-0.0106 0.52598,0 0.13645,0.0108 0.0114,0.0195 -0.2779,0.0194 -0.28929,0 -0.40092,-0.009 -0.24808,-0.0196 z m -64.90426,-0.0497 c 0.038,-0.0152 0.0833,-0.0133 0.10082,0.004 0.0175,0.0175 -0.0136,0.0299 -0.069,0.0276 -0.0613,-0.003 -0.0737,-0.015 -0.0318,-0.0318 z m 1.57794,0 c 0.038,-0.0152 0.0833,-0.0133 0.10081,0.004 0.0175,0.0175 -0.0136,0.0299 -0.069,0.0276 -0.0613,-0.003 -0.0737,-0.015 -0.0318,-0.0318 z m 7.94228,0 c 0.038,-0.0152 0.0833,-0.0133 0.10081,0.004 0.0175,0.0175 -0.0136,0.0299 -0.069,0.0276 -0.0613,-0.003 -0.0737,-0.015 -0.0318,-0.0318 z m 30.40157,0 c 0.038,-0.0152 0.0833,-0.0133 0.10082,0.004 0.0175,0.0175 -0.0136,0.0299 -0.069,0.0276 -0.0613,-0.003 -0.0737,-0.015 -0.0318,-0.0318 z m 1.63054,0 c 0.038,-0.0152 0.0833,-0.0133 0.10081,0.004 0.0175,0.0175 -0.0136,0.0299 -0.069,0.0276 -0.0613,-0.003 -0.0737,-0.015 -0.0318,-0.0318 z m 7.99488,0 c 0.038,-0.0152 0.0833,-0.0133 0.10081,0.004 0.0175,0.0175 -0.0136,0.0299 -0.069,0.0276 -0.0613,-0.003 -0.0737,-0.015 -0.0318,-0.0318 z m 1.63053,0 c 0.038,-0.0152 0.0833,-0.0133 0.10082,0.004 0.0175,0.0175 -0.0136,0.0299 -0.069,0.0276 -0.0613,-0.003 -0.0737,-0.015 -0.0318,-0.0318 z m 13.14947,0 c 0.038,-0.0152 0.0833,-0.0133 0.10082,0.004 0.0175,0.0175 -0.0136,0.0299 -0.069,0.0276 -0.0613,-0.003 -0.0737,-0.015 -0.0318,-0.0318 z m 1.63054,0 c 0.038,-0.0152 0.0833,-0.0133 0.10081,0.004 0.0175,0.0175 -0.0136,0.0299 -0.069,0.0276 -0.0613,-0.003 -0.0737,-0.015 -0.0318,-0.0318 z m -41.41277,-2.85696 c 0,-1.54769 0.007,-2.18084 0.0149,-1.40699 0.008,0.77385 0.008,2.04014 0,2.81399 -0.008,0.77384 -0.0149,0.14069 -0.0149,-1.407 z m 10.20399,0 c 0,-1.54769 0.007,-2.18084 0.0149,-1.40699 0.008,0.77385 0.008,2.04014 0,2.81399 -0.008,0.77384 -0.0149,0.14069 -0.0149,-1.407 z m 23.65869,2.75124 c 0.0512,-0.0133 0.12219,-0.0125 0.1578,0.002 0.0356,0.0144 -0.006,0.0253 -0.093,0.0242 -0.0868,-0.001 -0.11592,-0.0129 -0.0648,-0.0262 z m 1.94346,-0.68525 -0.0115,-0.74798 -0.69693,-0.0164 -0.69692,-0.0163 0.69858,-0.0115 c 0.53319,-0.009 0.70478,0.005 0.72482,0.0569 0.0144,0.0376 0.0189,0.38673 0.01,0.77581 l -0.0164,0.70742 z m -3.35476,0.0774 -0.15448,-0.17095 0.17094,0.15449 c 0.094,0.085 0.17094,0.16189 0.17094,0.17094 0,0.0406 -0.0434,0.005 -0.1874,-0.15448 z m 10.75958,-0.11835 c 0.0981,-0.10125 0.19026,-0.18409 0.20472,-0.18409 0.0145,0 -0.054,0.0828 -0.15212,0.18409 -0.0981,0.10125 -0.19027,0.18409 -0.20473,0.18409 -0.0145,0 0.054,-0.0828 0.15213,-0.18409 z m -64.27462,0.059 c 0,-0.0109 0.0414,-0.0523 0.0921,-0.0921 0.0834,-0.0654 0.0853,-0.0636 0.0199,0.0199 -0.0687,0.0876 -0.11191,0.11548 -0.11191,0.0722 z m 58.82743,-0.20368 -0.15449,-0.17095 0.17095,0.15449 c 0.15934,0.144 0.19512,0.1874 0.15448,0.1874 -0.009,0 -0.086,-0.0769 -0.17094,-0.17094 z m -18.53965,-0.1052 c 0.12897,-0.13741 0.2414,-0.24984 0.24984,-0.24984 0.0395,0 -0.002,0.0472 -0.23449,0.26519 l -0.24984,0.23449 z m 3.57886,-0.0131 c -0.12776,-0.13018 -0.22046,-0.23669 -0.206,-0.23669 0.0145,0 0.13084,0.10651 0.2586,0.23669 0.12776,0.13018 0.22045,0.23669 0.20599,0.23669 -0.0145,0 -0.13083,-0.10651 -0.25859,-0.23669 z m 5.99616,0.0526 c 0.0679,-0.0723 0.13536,-0.1315 0.14983,-0.1315 0.0145,0 -0.0293,0.0592 -0.0972,0.1315 -0.0679,0.0723 -0.13536,0.13149 -0.14983,0.13149 -0.0145,0 0.0293,-0.0592 0.0972,-0.13149 z m -46.13233,-0.11835 -0.12751,-0.14464 0.14464,0.12751 c 0.13519,0.11918 0.16877,0.16178 0.12752,0.16178 -0.009,0 -0.0745,-0.0651 -0.14465,-0.14465 z m 6.36833,-0.0394 c 0.0679,-0.0723 0.13536,-0.1315 0.14983,-0.1315 0.0145,0 -0.0293,0.0592 -0.0972,0.1315 -0.0679,0.0723 -0.13536,0.13149 -0.14983,0.13149 -0.0145,0 0.0293,-0.0592 0.0972,-0.13149 z m -9.62542,-0.0462 c 0,-0.0109 0.0414,-0.0523 0.0921,-0.0921 0.0834,-0.0654 0.0853,-0.0636 0.0199,0.0199 -0.0687,0.0876 -0.11191,0.11548 -0.11191,0.0722 z m -6.42365,-0.12479 c -0.0654,-0.0834 -0.0636,-0.0853 0.0199,-0.0199 0.0506,0.0397 0.0921,0.0811 0.0921,0.0921 0,0.0433 -0.0432,0.0154 -0.11191,-0.0722 z m 39.8166,-0.10519 c -0.0654,-0.0834 -0.0636,-0.0853 0.0199,-0.0199 0.0876,0.0687 0.11548,0.1119 0.0722,0.1119 -0.0109,0 -0.0523,-0.0414 -0.0921,-0.092 z m -36.93015,0.005 c 0.0362,-0.0146 0.0953,-0.0146 0.13149,0 0.0362,0.0146 0.007,0.0265 -0.0658,0.0265 -0.0723,0 -0.1019,-0.0119 -0.0657,-0.0265 z m 0.68377,0 c 0.0362,-0.0146 0.0953,-0.0146 0.13149,0 0.0362,0.0146 0.007,0.0265 -0.0657,0.0265 -0.0723,0 -0.10191,-0.0119 -0.0657,-0.0265 z m 39.23802,0 c 0.0362,-0.0146 0.0953,-0.0146 0.13149,0 0.0362,0.0146 0.007,0.0265 -0.0657,0.0265 -0.0723,0 -0.10191,-0.0119 -0.0658,-0.0265 z m 0.73966,-10e-4 c 0.038,-0.0152 0.0833,-0.0133 0.10081,0.004 0.0175,0.0175 -0.0136,0.0299 -0.069,0.0276 -0.0613,-0.003 -0.0737,-0.015 -0.0318,-0.0318 z m 8.94164,0 c 0.038,-0.0152 0.0833,-0.0133 0.10081,0.004 0.0175,0.0175 -0.0136,0.0299 -0.069,0.0276 -0.0613,-0.003 -0.0737,-0.015 -0.0318,-0.0318 z m 0.68377,0 c 0.038,-0.0152 0.0833,-0.0133 0.10082,0.004 0.0175,0.0175 -0.0136,0.0299 -0.069,0.0276 -0.0613,-0.003 -0.0737,-0.015 -0.0318,-0.0318 z m 14.09623,0 c 0.038,-0.0152 0.0833,-0.0133 0.10082,0.004 0.0175,0.0175 -0.0136,0.0299 -0.069,0.0276 -0.0613,-0.003 -0.0737,-0.015 -0.0318,-0.0318 z m 0.62789,10e-4 c 0.0362,-0.0146 0.0953,-0.0146 0.1315,0 0.0362,0.0146 0.007,0.0265 -0.0658,0.0265 -0.0723,0 -0.10191,-0.0119 -0.0658,-0.0265 z M 122.76,191.27199 c 0.038,-0.0152 0.0833,-0.0133 0.10082,0.004 0.0175,0.0175 -0.0136,0.0299 -0.069,0.0276 -0.0613,-0.003 -0.0737,-0.015 -0.0318,-0.0318 z m 0.73637,0 c 0.038,-0.0152 0.0833,-0.0133 0.10082,0.004 0.0175,0.0175 -0.0136,0.0299 -0.069,0.0276 -0.0613,-0.003 -0.0737,-0.015 -0.0318,-0.0318 z m 45.82677,-0.15254 c 0.003,-0.0613 0.015,-0.0737 0.0318,-0.0318 0.0152,0.038 0.0133,0.0833 -0.004,0.10081 -0.0175,0.0175 -0.0299,-0.0136 -0.0276,-0.069 z m 9.93685,-0.20603 c 0.0679,-0.0723 0.13537,-0.13149 0.14983,-0.13149 0.0145,0 -0.0293,0.0592 -0.0972,0.13149 -0.0679,0.0723 -0.13537,0.1315 -0.14983,0.1315 -0.0145,0 0.0293,-0.0592 0.0972,-0.1315 z m -67.24887,-0.19724 -0.20792,-0.22354 0.22355,0.20791 c 0.20789,0.19336 0.2477,0.23917 0.20791,0.23917 -0.009,0 -0.10918,-0.10059 -0.22354,-0.22354 z m 3.02685,0.20708 c 0,-0.009 0.0769,-0.086 0.17095,-0.17094 l 0.17094,-0.15448 -0.15449,0.17094 c -0.144,0.15934 -0.1874,0.19512 -0.1874,0.15448 z m 61.53282,-0.0756 c -0.0654,-0.0834 -0.0636,-0.0853 0.0199,-0.0199 0.0506,0.0397 0.092,0.0811 0.092,0.0921 0,0.0433 -0.0432,0.0154 -0.1119,-0.0722 z m -7.29609,-0.0658 c 0,-0.0723 0.0119,-0.10191 0.0265,-0.0657 0.0146,0.0362 0.0146,0.0953 0,0.1315 -0.0146,0.0362 -0.0265,0.007 -0.0265,-0.0658 z m -14.15714,0.0327 c 0,-0.0109 0.0414,-0.0523 0.0921,-0.0921 0.0834,-0.0654 0.0853,-0.0636 0.0199,0.0199 -0.0687,0.0876 -0.11191,0.11548 -0.11191,0.0722 z m -33.69394,-0.20368 -0.1002,-0.11835 0.11835,0.1002 c 0.11121,0.0942 0.14228,0.13649 0.1002,0.13649 -0.01,0 -0.0632,-0.0532 -0.11835,-0.11834 z m 59.85235,-0.27614 c 0,-0.20251 0.01,-0.2789 0.0211,-0.16977 0.0114,0.10913 0.0112,0.27481 -5.3e-4,0.36818 -0.0116,0.0934 -0.0209,0.004 -0.0207,-0.19841 z m -10.19691,-2.28801 c 0,-1.40305 0.007,-1.97702 0.0151,-1.2755 0.008,0.70152 0.008,1.84947 0,2.551 -0.008,0.70152 -0.0151,0.12755 -0.0151,-1.2755 z m 3.29348,2.33622 c 0.003,-0.0613 0.015,-0.0737 0.0318,-0.0318 0.0152,0.038 0.0133,0.0833 -0.004,0.10082 -0.0175,0.0175 -0.0299,-0.0136 -0.0276,-0.069 z m 1.83677,-0.19603 c 0,-0.0764 -0.1089,-0.0883 -0.93361,-0.1021 l -0.93361,-0.0157 0.93526,-0.0119 c 0.80173,-0.0102 0.93971,-5.2e-4 0.96641,0.0693 0.0171,0.0446 0.0164,0.0959 -0.002,0.11397 -0.018,0.018 -0.0328,-0.006 -0.0328,-0.0537 z m -66.74256,-0.69813 c 0.003,-0.0613 0.015,-0.0737 0.0318,-0.0318 0.0152,0.038 0.0133,0.0833 -0.004,0.10081 -0.0175,0.0175 -0.0299,-0.0136 -0.0276,-0.069 z m 49.5472,-0.1052 c 0.003,-0.0613 0.015,-0.0737 0.0318,-0.0318 0.0152,0.038 0.0133,0.0833 -0.004,0.10082 -0.0175,0.0175 -0.0299,-0.0136 -0.0276,-0.069 z m -40.13218,-0.10519 c 0.003,-0.0613 0.015,-0.0737 0.0318,-0.0318 0.0152,0.038 0.0133,0.0833 -0.004,0.10081 -0.0175,0.0175 -0.0299,-0.0136 -0.0276,-0.069 z m -9.46762,-0.1052 c 0.003,-0.0613 0.015,-0.0737 0.0318,-0.0318 0.0152,0.038 0.0133,0.0833 -0.004,0.10082 -0.0175,0.0175 -0.0299,-0.0136 -0.0276,-0.069 z m 39.87335,-0.0219 c 0,-0.0723 0.0119,-0.1019 0.0265,-0.0657 0.0146,0.0362 0.0146,0.0953 0,0.13149 -0.0146,0.0362 -0.0265,0.007 -0.0265,-0.0658 z m -38.03242,-0.0833 c 0.003,-0.0613 0.015,-0.0737 0.0318,-0.0318 0.0152,0.038 0.0133,0.0833 -0.004,0.10081 -0.0175,0.0175 -0.0299,-0.0136 -0.0276,-0.069 z m 16.36209,-0.0219 c 0,-0.0723 0.0119,-0.10191 0.0265,-0.0658 0.0146,0.0362 0.0146,0.0953 0,0.1315 -0.0146,0.0362 -0.0265,0.007 -0.0265,-0.0658 z m 25.14664,0.0132 c 0.91849,-0.008 2.42147,-0.008 3.33996,0 0.91849,0.008 0.167,0.0147 -1.66998,0.0147 -1.83698,0 -2.58847,-0.007 -1.66998,-0.0147 z m 6.20365,-0.0921 c 0.001,-0.0868 0.0129,-0.11592 0.0262,-0.0648 0.0133,0.0512 0.0125,0.12219 -0.002,0.1578 -0.0144,0.0356 -0.0253,-0.006 -0.0243,-0.0931 z m 1.84092,-0.0526 c 0.001,-0.0868 0.0129,-0.11592 0.0262,-0.0647 0.0133,0.0512 0.0125,0.12218 -0.002,0.15779 -0.0144,0.0356 -0.0253,-0.006 -0.0242,-0.093 z m -41.97009,-0.10519 c 5.8e-4,-0.11572 0.0113,-0.15686 0.0239,-0.0914 0.0126,0.0654 0.0121,0.1601 -0.001,0.21039 -0.0132,0.0503 -0.0235,-0.003 -0.0229,-0.11896 z m 1.83181,0.10081 c 0.003,-0.0613 0.015,-0.0737 0.0318,-0.0318 0.0152,0.038 0.0133,0.0833 -0.004,0.10082 -0.0175,0.0175 -0.0299,-0.0136 -0.0276,-0.069 z m 5.10199,0 c 0.003,-0.0613 0.015,-0.0737 0.0318,-0.0318 0.0152,0.038 0.0133,0.0833 -0.004,0.10082 -0.0175,0.0175 -0.0299,-0.0136 -0.0276,-0.069 z m 54.87675,-0.14026 -0.1002,-0.11835 0.11834,0.1002 c 0.11122,0.0942 0.14229,0.13649 0.1002,0.13649 -0.01,0 -0.0632,-0.0532 -0.11834,-0.11834 z m -22.88918,-0.0921 c 0,-0.10125 0.0108,-0.14267 0.0241,-0.092 0.0132,0.0506 0.0132,0.13346 0,0.18409 -0.0132,0.0506 -0.0241,0.009 -0.0241,-0.0921 z m -48.38423,-0.28929 c 0,-0.23143 0.009,-0.31956 0.0206,-0.19585 0.0111,0.12372 0.011,0.31307 -5.2e-4,0.42078 -0.0113,0.10772 -0.0204,0.007 -0.0202,-0.22493 z m 39.8692,0 c 0,-0.23143 0.009,-0.31956 0.0205,-0.19585 0.0111,0.12372 0.011,0.31307 -5.3e-4,0.42078 -0.0113,0.10772 -0.0204,0.007 -0.0202,-0.22493 z m -38.02904,0 c 0,-0.2025 0.01,-0.2789 0.0211,-0.16977 0.0114,0.10913 0.0112,0.27482 -5.2e-4,0.36819 -0.0116,0.0934 -0.0209,0.004 -0.0207,-0.19842 z m 7.6227,-0.42078 c 5.8e-4,-0.11571 0.0113,-0.15686 0.0239,-0.0914 0.0126,0.0654 0.0121,0.1601 -0.001,0.21039 -0.0132,0.0503 -0.0235,-0.003 -0.0229,-0.11896 z m 41.97009,-0.10519 c 0.001,-0.0868 0.0129,-0.11592 0.0262,-0.0648 0.0133,0.0512 0.0125,0.12218 -0.002,0.15779 -0.0144,0.0356 -0.0253,-0.006 -0.0242,-0.093 z m -40.13828,-0.004 c 0.003,-0.0613 0.015,-0.0737 0.0318,-0.0318 0.0152,0.038 0.0133,0.0833 -0.004,0.10082 -0.0175,0.0175 -0.0299,-0.0136 -0.0276,-0.069 z m 5.10199,0 c 0.003,-0.0613 0.015,-0.0737 0.0318,-0.0318 0.0152,0.038 0.0133,0.0833 -0.004,0.10082 -0.0175,0.0175 -0.0299,-0.0136 -0.0276,-0.069 z m 33.19537,-0.0482 c 0.001,-0.0868 0.0129,-0.11592 0.0262,-0.0647 0.0133,0.0512 0.0125,0.12218 -0.002,0.15779 -0.0144,0.0356 -0.0253,-0.006 -0.0243,-0.0931 z m -1.2078,-0.0789 c 0,-0.10125 0.0108,-0.14267 0.0241,-0.0921 0.0132,0.0506 0.0132,0.13347 0,0.18409 -0.0132,0.0506 -0.0241,0.009 -0.0241,-0.092 z m -30.14249,0 c 0,-0.0723 0.0119,-0.10191 0.0265,-0.0658 0.0146,0.0362 0.0146,0.0953 0,0.13149 -0.0146,0.0362 -0.0265,0.007 -0.0265,-0.0657 z m -16.36209,-0.0307 c 0.003,-0.0613 0.015,-0.0737 0.0318,-0.0318 0.0152,0.038 0.0133,0.0833 -0.004,0.10081 -0.0175,0.0175 -0.0299,-0.0136 -0.0276,-0.069 z m 34.51226,-0.12713 c 0,-0.10125 0.0108,-0.14267 0.0241,-0.0921 0.0132,0.0506 0.0132,0.13347 0,0.18409 -0.0132,0.0506 -0.0241,0.009 -0.0241,-0.092 z m -36.35319,0.0219 c 0.003,-0.0613 0.015,-0.0737 0.0318,-0.0318 0.0152,0.038 0.0133,0.0833 -0.004,0.10081 -0.0175,0.0175 -0.0299,-0.0136 -0.0276,-0.069 z m 26.14725,-0.0482 c 0.001,-0.0868 0.0129,-0.11592 0.0262,-0.0648 0.0133,0.0512 0.0125,0.12219 -0.002,0.15779 -0.0144,0.0356 -0.0253,-0.006 -0.0242,-0.093 z m 13.72195,0.0482 c 0.003,-0.0613 0.015,-0.0737 0.0318,-0.0318 0.0152,0.038 0.0133,0.0833 -0.004,0.10081 -0.0175,0.0175 -0.0299,-0.0136 -0.0276,-0.069 z m 1.84092,-0.0526 c 0.003,-0.0613 0.015,-0.0737 0.0318,-0.0318 0.0152,0.038 0.0133,0.0833 -0.004,0.10081 -0.0175,0.0175 -0.0299,-0.0136 -0.0276,-0.069 z m -32.2425,-0.0526 c 0.003,-0.0613 0.015,-0.0737 0.0318,-0.0318 0.0152,0.038 0.0133,0.0833 -0.004,0.10081 -0.0175,0.0175 -0.0299,-0.0136 -0.0276,-0.069 z m 12.36466,-0.0219 c 0,-0.0723 0.0119,-0.10191 0.0265,-0.0657 0.0146,0.0362 0.0146,0.0953 0,0.1315 -0.0146,0.0362 -0.0265,0.007 -0.0265,-0.0658 z m 10.20399,0 c 0,-0.0723 0.0119,-0.10191 0.0265,-0.0657 0.0146,0.0362 0.0146,0.0953 0,0.1315 -0.0146,0.0362 -0.0265,0.007 -0.0265,-0.0658 z m -13.89,-0.0833 c 0.003,-0.0613 0.015,-0.0737 0.0318,-0.0318 0.0152,0.038 0.0133,0.0833 -0.004,0.10082 -0.0175,0.0175 -0.0299,-0.0136 -0.0276,-0.069 z m 31.45353,0 c 0.003,-0.0613 0.015,-0.0737 0.0318,-0.0318 0.0152,0.038 0.0133,0.0833 -0.004,0.10082 -0.0175,0.0175 -0.0299,-0.0136 -0.0276,-0.069 z m -49.5472,-0.10519 c 0.003,-0.0613 0.015,-0.0737 0.0318,-0.0318 0.0152,0.038 0.0133,0.0833 -0.004,0.10081 -0.0175,0.0175 -0.0299,-0.0136 -0.0276,-0.069 z m 48.23226,0 c 0.003,-0.0613 0.015,-0.0737 0.0318,-0.0318 0.0152,0.038 0.0133,0.0833 -0.004,0.10081 -0.0175,0.0175 -0.0299,-0.0136 -0.0276,-0.069 z m -1.84093,-0.0526 c 0.003,-0.0613 0.015,-0.0737 0.0318,-0.0318 0.0152,0.038 0.0133,0.0833 -0.004,0.10081 -0.0175,0.0175 -0.0299,-0.0136 -0.0276,-0.069 z m -20.35538,-0.0526 c 0.003,-0.0613 0.015,-0.0737 0.0318,-0.0318 0.0152,0.038 0.0133,0.0833 -0.004,0.10082 -0.0175,0.0175 -0.0299,-0.0136 -0.0276,-0.069 z m 10.20399,0 c 0.003,-0.0613 0.015,-0.0737 0.0318,-0.0318 0.0152,0.038 0.0133,0.0833 -0.004,0.10082 -0.0175,0.0175 -0.0299,-0.0136 -0.0276,-0.069 z m 30.8115,-0.21916 c -0.0654,-0.0834 -0.0636,-0.0853 0.0199,-0.0199 0.0506,0.0397 0.0921,0.0811 0.0921,0.0921 0,0.0433 -0.0432,0.0154 -0.11191,-0.0722 z m -39.22716,-0.14902 c 0.003,-0.0613 0.015,-0.0737 0.0318,-0.0318 0.0152,0.038 0.0133,0.0833 -0.004,0.10081 -0.0175,0.0175 -0.0299,-0.0136 -0.0276,-0.069 z m 10.20399,0 c 0.003,-0.0613 0.015,-0.0737 0.0318,-0.0318 0.0152,0.038 0.0133,0.0833 -0.004,0.10081 -0.0175,0.0175 -0.0299,-0.0136 -0.0276,-0.069 z m -31.33661,-0.009 c 0.28356,-0.009 0.73327,-0.009 0.99936,0 0.26609,0.01 0.0341,0.0173 -0.51556,0.0172 -0.54965,-6e-5 -0.76736,-0.008 -0.4838,-0.0173 z m 49.09237,0 c -0.0134,-0.0217 0.42307,-0.0394 0.96996,-0.0394 0.54688,0 0.99433,0.0178 0.99433,0.0394 0,0.0217 -0.43647,0.0394 -0.96995,0.0394 -0.53348,0 -0.98093,-0.0178 -0.99434,-0.0394 z m 14.14874,-0.10519 c -0.0135,-0.0217 0.37389,-0.0325 0.86079,-0.0239 l 0.88527,0.0155 0.0231,-0.12071 c 0.0204,-0.10641 0.024,-0.10358 0.0303,0.0239 l 0.007,0.14465 h -0.89106 c -0.49008,0 -0.90207,-0.0178 -0.91553,-0.0395 z m -4.91089,-0.24984 c 5.2e-4,-0.14465 0.0106,-0.19757 0.0227,-0.11763 0.0121,0.08 0.0118,0.1983 -7.4e-4,0.26299 -0.0125,0.0647 -0.0224,-7.3e-4 -0.022,-0.14536 z m -53.2967,0.006 c 0,-0.0109 0.0414,-0.0523 0.092,-0.092 0.0834,-0.0654 0.0853,-0.0636 0.0199,0.0199 -0.0687,0.0876 -0.1119,0.11547 -0.1119,0.0722 z m 3.81003,-0.25628 -0.15448,-0.17094 0.17094,0.15449 c 0.094,0.085 0.17095,0.16189 0.17095,0.17094 0,0.0406 -0.0434,0.005 -0.18741,-0.15449 z m 26.82823,-0.092 c 0.11299,-0.11572 0.21728,-0.21039 0.23174,-0.21039 0.0145,0 -0.0661,0.0947 -0.17914,0.21039 -0.11299,0.11571 -0.21728,0.21039 -0.23174,0.21039 -0.0145,0 0.0661,-0.0947 0.17914,-0.21039 z m 3.44118,0.0131 -0.12751,-0.14465 0.14464,0.12752 c 0.0796,0.0701 0.14465,0.13522 0.14465,0.14464 0,0.0413 -0.0426,0.008 -0.16178,-0.12751 z m -43.38927,0.0756 c 0,-0.009 0.0769,-0.086 0.17094,-0.17095 l 0.17095,-0.15448 -0.15449,0.17094 c -0.144,0.15935 -0.1874,0.19512 -0.1874,0.15449 z m 52.85689,-0.18079 -0.12751,-0.14464 0.14464,0.12751 c 0.0796,0.0701 0.14465,0.13522 0.14465,0.14464 0,0.0413 -0.0426,0.008 -0.16178,-0.12751 z m 11.73331,-0.13821 c 0,-0.0109 0.0414,-0.0523 0.0921,-0.092 0.0834,-0.0654 0.0853,-0.0636 0.0199,0.0199 -0.0687,0.0876 -0.11191,0.11548 -0.11191,0.0722 z m -53.61039,-0.38316 c 0.0362,-0.0146 0.0953,-0.0146 0.13149,0 0.0362,0.0146 0.007,0.0265 -0.0657,0.0265 -0.0723,0 -0.10191,-0.0119 -0.0658,-0.0265 z m 0.57858,0 c 0.0362,-0.0146 0.0953,-0.0146 0.13149,0 0.0362,0.0146 0.007,0.0265 -0.0657,0.0265 -0.0723,0 -0.10191,-0.0119 -0.0657,-0.0265 z m 9.62541,0 c 0.0362,-0.0146 0.0953,-0.0146 0.13149,0 0.0362,0.0146 0.007,0.0265 -0.0657,0.0265 -0.0723,0 -0.10191,-0.0119 -0.0658,-0.0265 z m 0.57858,0 c 0.0362,-0.0146 0.0953,-0.0146 0.13149,0 0.0362,0.0146 0.007,0.0265 -0.0658,0.0265 -0.0723,0 -0.10191,-0.0119 -0.0657,-0.0265 z m 9.62541,0 c 0.0362,-0.0146 0.0953,-0.0146 0.13149,0 0.0362,0.0146 0.007,0.0265 -0.0657,0.0265 -0.0723,0 -0.10191,-0.0119 -0.0658,-0.0265 z m 0.57857,0 c 0.0362,-0.0146 0.0953,-0.0146 0.1315,0 0.0362,0.0146 0.007,0.0265 -0.0658,0.0265 -0.0723,0 -0.10191,-0.0119 -0.0658,-0.0265 z m 24.38688,-0.70153 c 0,-0.41947 0.008,-0.59107 0.0181,-0.38133 0.01,0.20973 0.01,0.55293 0,0.76266 -0.01,0.20974 -0.0181,0.0381 -0.0181,-0.38133 z m 4.9442,0 c 0,-0.41947 0.008,-0.59107 0.0181,-0.38133 0.01,0.20973 0.01,0.55293 0,0.76266 -0.01,0.20974 -0.0181,0.0381 -0.0181,-0.38133 z m -59.83723,0.64657 c 0.0654,-0.0126 0.1601,-0.0121 0.21039,0.001 0.0503,0.0132 -0.003,0.0235 -0.11896,0.0229 -0.11572,-5.8e-4 -0.15686,-0.0114 -0.0914,-0.0239 z m 0.39387,9.5e-4 c 0.0506,-0.0132 0.13346,-0.0132 0.18409,0 0.0506,0.0132 0.009,0.024 -0.0921,0.024 -0.10125,0 -0.14267,-0.0108 -0.092,-0.024 z m 39.50101,0 c 0.0506,-0.0132 0.13346,-0.0132 0.18409,0 0.0506,0.0132 0.009,0.024 -0.0921,0.024 -0.10125,0 -0.14267,-0.0108 -0.092,-0.024 z m 0.36818,0 c 0.0506,-0.0132 0.13347,-0.0132 0.18409,0 0.0506,0.0132 0.009,0.024 -0.092,0.024 -0.10125,0 -0.14267,-0.0108 -0.0921,-0.024 z m 9.30983,0 c 0.0506,-0.0132 0.13346,-0.0132 0.18409,0 0.0506,0.0132 0.009,0.024 -0.0921,0.024 -0.10125,0 -0.14267,-0.0108 -0.092,-0.024 z m 0.42078,0 c 0.0506,-0.0132 0.13347,-0.0132 0.18409,0 0.0506,0.0132 0.009,0.024 -0.092,0.024 -0.10125,0 -0.14267,-0.0108 -0.0921,-0.024 z m 14.12315,-9.5e-4 c 0.0654,-0.0126 0.1601,-0.0121 0.21039,0.001 0.0503,0.0132 -0.003,0.0235 -0.11896,0.0229 -0.11572,-5.8e-4 -0.15686,-0.0114 -0.0914,-0.0239 z m 0.39387,9.5e-4 c 0.0506,-0.0132 0.13346,-0.0132 0.18409,0 0.0506,0.0132 0.009,0.024 -0.0921,0.024 -0.10125,0 -0.14267,-0.0108 -0.092,-0.024 z m -67.49624,-0.0888 c 0,-0.0109 0.0414,-0.0523 0.0921,-0.0921 0.0834,-0.0654 0.0853,-0.0636 0.0199,0.0199 -0.0687,0.0876 -0.11191,0.11548 -0.11191,0.0722 z m 9.70431,-0.19053 c 0.11299,-0.11572 0.21728,-0.2104 0.23174,-0.2104 0.0145,0 -0.0662,0.0947 -0.17914,0.2104 -0.11299,0.11571 -0.21728,0.21039 -0.23174,0.21039 -0.0145,0 0.0662,-0.0947 0.17914,-0.21039 z m 30.24379,0.10519 c 0.0524,-0.0579 0.10703,-0.10519 0.1215,-0.10519 0.0145,0 -0.0165,0.0473 -0.0689,0.10519 -0.0524,0.0579 -0.10703,0.1052 -0.1215,0.1052 -0.0145,0 0.0165,-0.0473 0.0689,-0.1052 z m -33.53787,-0.0921 c -0.0654,-0.0834 -0.0636,-0.0853 0.0199,-0.0199 0.0506,0.0397 0.0921,0.0811 0.0921,0.0921 0,0.0433 -0.0432,0.0154 -0.11191,-0.0722 z m 43.24217,0.0756 c 0,-0.009 0.0769,-0.086 0.17095,-0.17094 l 0.17094,-0.15449 -0.15448,0.17095 c -0.14401,0.15934 -0.18741,0.19512 -0.18741,0.15448 z m -3.42557,-0.18078 c -0.0654,-0.0834 -0.0636,-0.0853 0.0199,-0.0199 0.0876,0.0687 0.11548,0.11191 0.0722,0.11191 -0.0109,0 -0.0523,-0.0414 -0.0921,-0.0921 z m -20.21965,-0.18409 -0.20792,-0.22354 0.22355,0.20791 c 0.20789,0.19336 0.24771,0.23917 0.20791,0.23917 -0.009,0 -0.10918,-0.1006 -0.22354,-0.22354 z m 10.17734,-0.0263 -0.18127,-0.19724 0.19725,0.18126 c 0.10848,0.0997 0.19724,0.18845 0.19724,0.19724 0,0.0402 -0.0445,0.002 -0.21322,-0.18126 z m 4.07916,0.092 c 0.0524,-0.0579 0.10704,-0.10519 0.1215,-0.10519 0.0145,0 -0.0165,0.0473 -0.0689,0.10519 -0.0524,0.0579 -0.10704,0.1052 -0.1215,0.1052 -0.0145,0 0.0165,-0.0473 0.0689,-0.1052 z m -39.8166,-0.0526 c 0.0524,-0.0579 0.10704,-0.1052 0.12151,-0.1052 0.0145,0 -0.0165,0.0473 -0.0689,0.1052 -0.0524,0.0579 -0.10703,0.10519 -0.1215,0.10519 -0.0145,0 0.0165,-0.0473 0.0689,-0.10519 z m 15.32558,0.0131 c -0.0654,-0.0834 -0.0636,-0.0853 0.0199,-0.0199 0.0506,0.0397 0.092,0.0811 0.092,0.092 0,0.0433 -0.0432,0.0154 -0.1119,-0.0722 z m 54.25812,-0.0789 -0.15449,-0.17094 0.17094,0.15448 c 0.094,0.085 0.17095,0.16189 0.17095,0.17094 0,0.0406 -0.0434,0.005 -0.1874,-0.15448 z m -63.96072,0 -0.1002,-0.11835 0.11835,0.1002 c 0.11121,0.0942 0.14229,0.13649 0.1002,0.13649 -0.01,0 -0.0632,-0.0532 -0.11835,-0.11834 z m 15.12689,-0.11191 c 0,-0.0109 0.0414,-0.0523 0.0921,-0.092 0.0834,-0.0654 0.0853,-0.0636 0.0199,0.0199 -0.0687,0.0876 -0.11191,0.11547 -0.11191,0.0722 z m -9.37229,-0.69984 c 0.038,-0.0152 0.0833,-0.0133 0.10082,0.004 0.0175,0.0175 -0.0136,0.0299 -0.069,0.0276 -0.0613,-0.003 -0.0737,-0.015 -0.0318,-0.0318 z m 48.8733,-1.01479 v -1.05071 l -0.90731,-0.0157 -0.90732,-0.0157 0.93362,-0.0118 0.93361,-0.0118 v 1.07825 c 0,0.59304 -0.0118,1.07826 -0.0263,1.07826 -0.0145,0 -0.0263,-0.47282 -0.0263,-1.05072 z m -58.18312,0.96219 c 0.038,-0.0152 0.0833,-0.0133 0.10081,0.004 0.0175,0.0175 -0.0136,0.0299 -0.069,0.0276 -0.0613,-0.003 -0.0737,-0.015 -0.0318,-0.0318 z m 1.52534,0 c 0.038,-0.0152 0.0833,-0.0133 0.10081,0.004 0.0175,0.0175 -0.0136,0.0299 -0.069,0.0276 -0.0613,-0.003 -0.0737,-0.015 -0.0318,-0.0318 z m 8.10007,0 c 0.038,-0.0152 0.0833,-0.0133 0.10082,0.004 0.0175,0.0175 -0.0136,0.0299 -0.069,0.0276 -0.0613,-0.003 -0.0737,-0.015 -0.0318,-0.0318 z m 1.41686,0.001 c 0.0362,-0.0146 0.0953,-0.0146 0.13149,0 0.0362,0.0146 0.007,0.0265 -0.0658,0.0265 -0.0723,0 -0.1019,-0.0119 -0.0657,-0.0265 z m 10.57546,-0.001 c 0.038,-0.0152 0.0833,-0.0133 0.10081,0.004 0.0175,0.0175 -0.0136,0.0299 -0.069,0.0276 -0.0613,-0.003 -0.0737,-0.015 -0.0318,-0.0318 z m 10.20399,0 c 0.038,-0.0152 0.0833,-0.0133 0.10081,0.004 0.0175,0.0175 -0.0136,0.0299 -0.069,0.0276 -0.0613,-0.003 -0.0737,-0.015 -0.0318,-0.0318 z m 8.10007,0 c 0.038,-0.0152 0.0833,-0.0133 0.10082,0.004 0.0175,0.0175 -0.0136,0.0299 -0.069,0.0276 -0.0613,-0.003 -0.0737,-0.015 -0.0318,-0.0318 z m 1.47274,0 c 0.038,-0.0152 0.0833,-0.0133 0.10082,0.004 0.0175,0.0175 -0.0136,0.0299 -0.069,0.0276 -0.0613,-0.003 -0.0737,-0.015 -0.0318,-0.0318 z m 8.15268,0 c 0.038,-0.0152 0.0833,-0.0133 0.10081,0.004 0.0175,0.0175 -0.0136,0.0299 -0.069,0.0276 -0.0613,-0.003 -0.0737,-0.015 -0.0318,-0.0318 z m 1.52533,0 c 0.038,-0.0152 0.0833,-0.0133 0.10082,0.004 0.0175,0.0175 -0.0136,0.0299 -0.069,0.0276 -0.0613,-0.003 -0.0737,-0.015 -0.0318,-0.0318 z m 13.09688,0 c 0.038,-0.0152 0.0833,-0.0133 0.10081,0.004 0.0175,0.0175 -0.0136,0.0299 -0.069,0.0276 -0.0613,-0.003 -0.0737,-0.015 -0.0318,-0.0318 z m 1.47274,0 c 0.038,-0.0152 0.0833,-0.0133 0.10081,0.004 0.0175,0.0175 -0.0136,0.0299 -0.069,0.0276 -0.0613,-0.003 -0.0737,-0.015 -0.0318,-0.0318 z m -65.06548,-0.0553 c 0.12371,-0.0111 0.31306,-0.011 0.42078,3.7e-4 0.10772,0.0113 0.006,0.0204 -0.22493,0.0202 -0.23143,-2.1e-4 -0.31956,-0.009 -0.19585,-0.0205 z m 9.59772,2.7e-4 c 0.10848,-0.0113 0.286,-0.0113 0.39449,0 0.10848,0.0113 0.0197,0.0206 -0.19725,0.0206 -0.21696,0 -0.30572,-0.009 -0.19724,-0.0206 z m 10.5973,3.6e-4 c 0.0934,-0.0116 0.25906,-0.0118 0.36819,-4.2e-4 0.10913,0.0114 0.0327,0.0209 -0.16977,0.0211 -0.2025,2.1e-4 -0.29179,-0.009 -0.19842,-0.0207 z m 10.20399,0 c 0.0934,-0.0116 0.25906,-0.0118 0.36819,-4.2e-4 0.10913,0.0114 0.0327,0.0209 -0.16977,0.0211 -0.2025,2.1e-4 -0.29179,-0.009 -0.19842,-0.0207 z m 9.54769,-3.6e-4 c 0.10848,-0.0113 0.286,-0.0113 0.39448,0 0.10849,0.0113 0.0197,0.0206 -0.19724,0.0206 -0.21696,0 -0.30572,-0.009 -0.19724,-0.0206 z m 9.62541,0 c 0.10849,-0.0113 0.286,-0.0113 0.39449,0 0.10848,0.0113 0.0197,0.0206 -0.19724,0.0206 -0.21697,0 -0.30573,-0.009 -0.19725,-0.0206 z m 14.62222,0 c 0.10848,-0.0113 0.286,-0.0113 0.39448,0 0.10848,0.0113 0.0197,0.0206 -0.19724,0.0206 -0.21697,0 -0.30573,-0.009 -0.19724,-0.0206 z M 92.736471,177.7508 c 0,-0.0217 1.346874,-0.0394 2.993057,-0.0394 1.646182,0 2.982084,0.0177 2.968677,0.0394 -0.01341,0.0217 -1.360287,0.0394 -2.993057,0.0394 -1.632775,0 -2.968677,-0.0177 -2.968677,-0.0394 z m 20.337179,0 c -0.0222,-0.0358 2.12393,-0.0353 4.90981,0.001 0.59304,0.008 -0.26357,0.0196 -1.90357,0.0262 -1.64001,0.007 -2.99281,-0.006 -3.00624,-0.0274 z m 12.65855,3e-5 c 0.77588,-0.008 2.03034,-0.008 2.78768,2e-5 0.75735,0.008 0.12254,0.0149 -1.41069,0.0149 -1.53323,-1e-5 -2.15288,-0.007 -1.37699,-0.0149 z m 24.6951,-2e-5 c 1.94772,-0.008 5.11937,-0.008 7.04811,0 1.92875,0.008 0.33516,0.0139 -3.5413,0.0139 -3.87646,0 -5.45453,-0.006 -3.50681,-0.0139 z m 26.71545,0 2.74806,-0.0141 0.0133,-7.50788 0.0133,-7.50788 3.7476,-0.0135 3.7476,-0.0135 v -2.23493 -2.23492 l -10.16454,-0.0135 -10.16454,-0.0135 10.17769,2.1e-4 10.17769,2.1e-4 v 2.26171 2.26171 l -3.7476,0.0135 -3.7476,0.0135 v 7.52114 7.52115 l -2.77454,-0.0127 -2.77453,-0.0127 2.74806,-0.0141 z m -77.00815,-2.6036 c 0.0134,-0.0217 2.60151,-0.0394 5.75134,-0.0394 3.14983,0 5.73794,0.0177 5.75134,0.0394 0.0134,0.0217 -2.57469,0.0394 -5.75134,0.0394 -3.17665,0 -5.76475,-0.0177 -5.75134,-0.0394 z m -38.798314,-0.16644 c 0.03406,-0.0341 0.06963,-0.0341 0.103693,0 0.03406,0.0341 0.01628,0.0519 -0.05185,0.0519 -0.06813,0 -0.08591,-0.0178 -0.05185,-0.0519 z m 86.644634,-1.75333 c 0.60221,-0.008 1.57264,-0.008 2.15652,2e-5 0.58386,0.008 0.0911,0.0154 -1.09493,0.0153 -1.18609,-1e-5 -1.6638,-0.007 -1.06159,-0.0154 z m 9.78321,0 c 0.60221,-0.008 1.57264,-0.008 2.15651,2e-5 0.58387,0.008 0.0911,0.0154 -1.09493,0.0153 -1.18608,-1e-5 -1.6638,-0.007 -1.06158,-0.0154 z m -25.96058,-2.36694 c 1.0776,-0.008 2.84094,-0.008 3.91854,0 1.0776,0.008 0.19593,0.0145 -1.95927,0.0145 -2.1552,0 -3.03687,-0.007 -1.95927,-0.0145 z m 0,-4.52342 c 1.0776,-0.008 2.84094,-0.008 3.91854,0 1.0776,0.008 0.19593,0.0145 -1.95927,0.0145 -2.1552,0 -3.03687,-0.006 -1.95927,-0.0145 z m 3.47146,-3.62927 5.43073,-0.0136 v -2.235 -2.235 l -8.19212,-0.0135 -8.19212,-0.0135 8.21842,-0.013 8.21842,-0.013 v 2.28801 2.28801 l -5.45703,-0.0129 -5.45703,-0.0129 z m 12.70591,5e-5 c 0.60221,-0.008 1.57264,-0.008 2.15652,2e-5 0.58386,0.008 0.0911,0.0154 -1.09493,0.0154 -1.18609,-10e-6 -1.6638,-0.007 -1.06159,-0.0154 z m 9.78321,0 c 0.60221,-0.008 1.57264,-0.008 2.15651,2e-5 0.58387,0.008 0.0911,0.0154 -1.09493,0.0154 -1.18608,-10e-6 -1.6638,-0.007 -1.06158,-0.0154 z m 11.17738,-3e-5 c 1.02186,-0.008 2.6787,-0.008 3.68185,1e-5 1.00316,0.008 0.16709,0.0145 -1.85793,0.0145 -2.02502,-1e-5 -2.84578,-0.007 -1.82392,-0.0145 z m -65.85069,-4.49761 c 0.022,-0.022 1.28117,-0.0338 2.79823,-0.0263 l 2.75828,0.0136 -2.79823,0.0263 c -1.53903,0.0145 -2.78025,0.008 -2.75828,-0.0136 z m 47.33648,-0.0258 c 1.94772,-0.008 5.11937,-0.008 7.04811,0 1.92875,0.008 0.33516,0.0139 -3.5413,0.0139 -3.87646,0 -5.45453,-0.006 -3.50681,-0.0139 z m -45.04981,-11.87166 c 0,-0.0421 0.0201,-0.0642 0.0447,-0.049 0.0246,0.0152 0.0311,0.0497 0.0144,0.0766 -0.0425,0.0688 -0.0591,0.0611 -0.0591,-0.0276 z m 0.10948,-0.0885 c -0.0227,-0.0367 -0.0153,-0.0475 0.0182,-0.0268 0.0309,0.0191 0.0682,0.005 0.0829,-0.0313 0.0191,-0.0473 0.0278,-0.0483 0.0308,-0.003 0.006,0.0905 -0.0871,0.13399 -0.13183,0.0616 z m 0.18858,-0.0979 c 0,-0.0289 0.0251,-0.0526 0.0557,-0.0526 0.0306,0 0.0411,0.0237 0.0232,0.0526 -0.0179,0.0289 -0.043,0.0526 -0.0557,0.0526 -0.0128,0 -0.0232,-0.0237 -0.0232,-0.0526 z M 48.060517,132.49385 c 0.01519,-0.0246 0.04965,-0.0311 0.07658,-0.0144 0.06882,0.0425 0.06107,0.0591 -0.02762,0.0591 -0.04212,0 -0.06415,-0.0201 -0.04896,-0.0447 z"
         id="path902" />
      <path
         style="fill:#6a0d21;stroke-width:0.0525979"
         d="m 10.105196,198.32363 c 0,-0.0378 37.83649,-65.59577 37.940065,-65.73742 0.06205,-0.0849 0.933934,1.40592 7.948533,13.59075 4.333361,7.52733 7.858297,13.70482 7.833192,13.72775 -0.02511,0.0229 -1.998346,0.9574 -4.384975,2.07661 l -4.339326,2.03492 -0.07805,-0.11737 c -0.04293,-0.0646 -1.607696,-2.78097 -3.477266,-6.03648 -1.869569,-3.2555 -3.420274,-5.92489 -3.446011,-5.93198 -0.02574,-0.007 -1.631196,2.73743 -3.567688,6.09891 -2.595422,4.50529 -13.061499,22.63574 -13.26759,22.98353 -0.01318,0.0222 0.101977,-0.016 0.255892,-0.0851 0.210855,-0.0945 73.444318,-34.45366 73.969488,-34.70443 0.0937,-0.0447 0.0957,-0.0425 0.0183,0.0204 -0.0478,0.0388 -8.148053,5.31244 -18.000641,11.71908 -9.852583,6.40664 -17.914235,11.66775 -17.914782,11.69137 -5.26e-4,0.0236 3.715052,6.47898 8.256879,14.34526 4.541827,7.86628 8.257868,14.31452 8.257868,14.32943 0,0.0149 -2.514836,0.0264 -5.588525,0.0255 l -5.588525,-0.002 -6.706231,-11.62843 c -3.688426,-6.39564 -6.730967,-11.66318 -6.761201,-11.70566 -0.04516,-0.0634 -3.267742,2.01272 -18.051914,11.63002 l -17.996943,11.70723 h -7.655302 c -4.210416,0 -7.655301,-0.0146 -7.655301,-0.0324 z"
         id="path900" />
      <path
         style="fill:#222222;stroke-width:0.0525979"
         d="m 112.61847,192.75454 c -1.55121,-0.3467 -2.61814,-1.39202 -3.06022,-2.99827 -0.0995,-0.36143 -0.11582,-0.55432 -0.11582,-1.36755 0,-1.10793 0.0761,-1.47889 0.46417,-2.2617 0.40769,-0.82248 0.91803,-1.33257 1.73881,-1.73798 0.64559,-0.31888 0.9811,-0.39837 1.81463,-0.42993 1.99606,-0.0756 3.37063,0.73486 3.99575,2.35585 0.0877,0.22745 0.15948,0.42614 0.15948,0.44153 0,0.0154 -0.43332,0.028 -0.96294,0.028 h -0.96294 l -0.0981,-0.22236 c -0.1211,-0.27447 -0.50451,-0.69137 -0.78937,-0.85831 -0.51439,-0.30144 -1.4268,-0.36205 -2.02566,-0.13454 -0.61658,0.23425 -1.15426,0.82636 -1.36244,1.50038 -0.40184,1.30098 -0.18173,2.77009 0.53742,3.58709 0.67731,0.76946 2.08902,0.94038 2.96816,0.35935 0.29042,-0.19194 0.59988,-0.5649 0.70709,-0.8522 l 0.0638,-0.17094 h 0.96604 0.96604 l -0.0338,0.11835 c -0.0811,0.28401 -0.45175,0.9865 -0.67895,1.28685 -0.13603,0.17982 -0.38202,0.43507 -0.54665,0.56723 -0.3561,0.28587 -1.01797,0.62307 -1.45648,0.74204 -0.44535,0.12082 -1.83056,0.14935 -2.28801,0.0471 z m 9.54652,8.9e-4 c -2.21936,-0.48833 -3.53434,-2.45626 -3.2852,-4.91646 0.11179,-1.10397 0.50159,-1.93868 1.25498,-2.68744 0.38322,-0.38086 0.53717,-0.49164 1.00825,-0.72549 0.77976,-0.38708 1.35184,-0.50221 2.31062,-0.46501 0.80291,0.0312 1.27205,0.14011 1.86722,0.43364 0.83909,0.41384 1.43097,1.0036 1.84413,1.83753 0.30582,0.61728 0.44383,1.16954 0.47974,1.91982 0.11131,2.32467 -1.25448,4.13948 -3.46524,4.60453 -0.45175,0.095 -1.58039,0.0944 -2.0145,-0.001 z m 1.68094,-1.52807 c 0.94772,-0.24685 1.66628,-1.00648 1.90155,-2.01023 0.11656,-0.4973 0.0766,-1.48638 -0.0797,-1.9719 -0.48513,-1.50706 -2.20899,-2.20865 -3.64226,-1.48236 -0.63501,0.32178 -1.10188,0.9731 -1.28386,1.79107 -0.12755,0.57331 -0.0837,1.5355 0.0932,2.04453 0.29372,0.84518 0.87309,1.4114 1.672,1.63405 0.33219,0.0926 0.97329,0.0901 1.33906,-0.005 z m 28.71992,1.53162 c -1.732,-0.3935 -2.90474,-1.63867 -3.21409,-3.41259 -0.1255,-0.71963 -0.0769,-1.80011 0.10913,-2.42782 0.56103,-1.89272 2.04333,-2.97117 4.08726,-2.97369 1.78899,-0.002 3.16971,0.82019 3.83299,2.283 0.30395,0.67036 0.4501,1.55789 0.38829,2.35808 l -0.0355,0.46023 h -3.31403 -3.31403 l 0.0321,0.23415 c 0.13453,0.98152 0.81622,1.74784 1.78399,2.00548 0.58262,0.1551 1.39238,0.0585 1.87378,-0.22359 0.27926,-0.16362 0.65807,-0.5495 0.74466,-0.75854 l 0.0634,-0.15295 h 0.97023 0.97022 l -0.0359,0.11835 c -0.0198,0.0651 -0.13242,0.3077 -0.25035,0.53913 -0.2981,0.58495 -0.94912,1.23633 -1.53545,1.53627 -0.7355,0.37625 -1.04308,0.44836 -1.99872,0.46856 -0.58107,0.0123 -0.93947,-0.004 -1.15787,-0.0541 z m 3.34068,-5.33508 c 0,-0.28901 -0.17695,-0.76385 -0.39569,-1.06183 -0.64185,-0.87437 -2.01432,-1.19114 -3.05143,-0.70427 -0.66099,0.3103 -1.1499,0.97932 -1.31346,1.79731 l -0.0342,0.17095 h 2.39738 2.39739 z m 6.3683,5.35513 c -1.36154,-0.2845 -2.47554,-1.20663 -2.95767,-2.4483 -0.3887,-1.00102 -0.4546,-2.25836 -0.17623,-3.36232 0.0437,-0.17347 0.19615,-0.55277 0.33867,-0.84288 0.55123,-1.12202 1.5125,-1.84648 2.79481,-2.10631 0.59737,-0.12104 1.7449,-0.0804 2.30933,0.0819 0.85119,0.24464 1.53541,0.71687 2.00261,1.38214 0.22233,0.31659 0.57613,1.08234 0.57613,1.24696 0,0.0353 -0.33065,0.0543 -0.94588,0.0543 h -0.94587 l -0.1356,-0.26759 c -0.52423,-1.03452 -1.90574,-1.403 -3.06249,-0.81683 -0.13698,0.0694 -0.37489,0.25926 -0.52869,0.42188 -0.49876,0.52736 -0.7461,1.28291 -0.74545,2.27716 0.001,1.54724 0.65038,2.59503 1.78926,2.88703 0.44401,0.11384 1.11688,0.0783 1.53702,-0.0813 0.39319,-0.14931 0.81691,-0.53694 1.00353,-0.91806 l 0.14388,-0.29385 h 0.95085 0.95084 l -0.0349,0.14464 c -0.0579,0.24043 -0.32278,0.77557 -0.54788,1.10705 -0.43188,0.63598 -1.1718,1.15766 -2.03226,1.43286 -0.30465,0.0974 -0.5134,0.12055 -1.20975,0.13395 -0.46286,0.009 -0.9463,-0.006 -1.0743,-0.0324 z m 14.69715,-0.0211 c -1.44284,-0.33035 -2.35954,-1.20511 -2.58062,-2.46256 l -0.0347,-0.19724 h 0.91397 0.91397 l 0.0911,0.25649 c 0.11663,0.32838 0.44382,0.6648 0.80931,0.83212 0.58114,0.26606 1.52475,0.21394 2.01108,-0.11109 0.29097,-0.19446 0.42667,-0.44252 0.42679,-0.78013 0,-0.21273 -0.0279,-0.28062 -0.18872,-0.45866 -0.25142,-0.2783 -0.58102,-0.42987 -1.49433,-0.68719 -1.54613,-0.43562 -2.16417,-0.69013 -2.61688,-1.07763 -0.68561,-0.58685 -0.90203,-1.70455 -0.49745,-2.5691 0.31104,-0.66469 1.00343,-1.1867 1.90458,-1.43592 0.4839,-0.13382 1.88152,-0.13557 2.3631,-0.003 1.07568,0.29623 1.82284,1.01005 2.0839,1.99091 0.0413,0.15531 0.0754,0.35989 0.0758,0.45461 l 6.3e-4,0.17222 -0.87155,-0.0144 -0.87155,-0.0144 -0.0948,-0.2802 c -0.24262,-0.71705 -1.11804,-1.10194 -2.05441,-0.90323 -0.77735,0.16496 -1.15341,0.74703 -0.84916,1.31434 0.20412,0.3806 0.44442,0.48869 2.40086,1.07994 1.26355,0.38186 1.91524,0.8133 2.2473,1.48781 0.16559,0.33638 0.17221,0.37408 0.17221,0.98209 0,0.61411 -0.005,0.64252 -0.17883,0.98866 -0.31801,0.63376 -1.00106,1.15285 -1.82171,1.38442 -0.42603,0.12022 -1.82035,0.15177 -2.25989,0.0511 z m -47.52219,-4.36924 v -4.33932 h 0.89417 0.89416 V 184.5247 185 l 0.32022,-0.26649 c 0.6462,-0.53777 1.37504,-0.78995 2.27864,-0.78839 0.70287,0.001 1.16708,0.105 1.74047,0.38915 0.77155,0.38236 1.288,0.99784 1.59254,1.89794 l 0.14237,0.42078 0.0159,3.03753 0.016,3.03753 h -0.87026 -0.87025 v -2.59642 c 0,-1.42802 -0.0221,-2.71287 -0.0491,-2.8552 -0.10243,-0.54009 -0.26785,-0.87067 -0.60379,-1.20661 -0.45336,-0.45336 -0.76394,-0.56883 -1.52995,-0.56883 -0.48383,0 -0.63003,0.0203 -0.89283,0.12397 -0.3791,0.14956 -0.82698,0.55374 -1.00679,0.90857 -0.26745,0.52779 -0.28157,0.70545 -0.28241,3.55148 l -7.8e-4,2.64304 h -0.89416 -0.89417 z m 10.20399,0 v -4.33932 h 0.89417 0.89416 v 0.47746 0.47746 l 0.27501,-0.24057 c 0.61358,-0.53675 1.4182,-0.82019 2.32385,-0.81863 0.67519,0.001 1.15664,0.10369 1.69175,0.36029 0.78072,0.37436 1.33435,1.02452 1.64074,1.9268 l 0.14289,0.42078 0.0159,3.03753 0.016,3.03753 h -0.87026 -0.87025 v -2.59642 c 0,-1.42802 -0.0221,-2.71287 -0.0491,-2.8552 -0.10243,-0.54009 -0.26785,-0.87067 -0.6038,-1.20661 -0.45335,-0.45336 -0.76393,-0.56883 -1.52994,-0.56883 -0.48383,0 -0.63003,0.0203 -0.89283,0.12397 -0.3791,0.14956 -0.82698,0.55374 -1.00679,0.90857 -0.26745,0.52779 -0.28157,0.70545 -0.28241,3.55148 l -7.8e-4,2.64304 h -0.89416 -0.89417 z m 31.47984,4.28448 c -0.71767,-0.0944 -1.31368,-0.47562 -1.58705,-1.0151 -0.24886,-0.49108 -0.27635,-0.84653 -0.27834,-3.59811 l -0.002,-2.53785 h -0.49968 -0.49968 v -0.73637 -0.73637 h 0.49968 0.49968 v -1.05196 -1.05196 h 0.89417 0.89416 v 1.05196 1.05196 h 1.05196 1.05196 v 0.73637 0.73637 h -1.05196 -1.05196 l 5.3e-4,2.48525 c 0,1.4746 0.0214,2.56133 0.0523,2.67233 0.0667,0.24013 0.28551,0.44525 0.55232,0.5178 0.11571,0.0315 0.50033,0.0573 0.85471,0.0575 l 0.64433,5.3e-4 v 0.73637 0.73637 l -0.85472,-0.007 c -0.47009,-0.004 -0.99673,-0.0254 -1.1703,-0.0482 z M 92.789069,177.70793 c 0,-0.0168 2.322149,-4.40764 5.160336,-9.75734 l 5.160335,-9.72675 2.7688,3.2e-4 2.76879,3.1e-4 4.76011,8.97718 c 2.61806,4.93745 4.94474,9.3279 5.17039,9.75657 l 0.41029,0.77939 h -2.94186 -2.94186 l -0.74905,-1.31518 -0.74905,-1.31518 -5.73408,0.0134 -5.73409,0.0134 -0.723858,1.28865 -0.723857,1.28865 -2.950673,0.0136 c -1.622871,0.008 -2.950673,-1.4e-4 -2.950673,-0.017 z m 16.568331,-7.15058 c 0,-0.036 -3.41711,-6.30057 -3.46261,-6.34802 -0.0195,-0.0203 -0.54426,0.9133 -1.16615,2.07472 -0.62189,1.16143 -1.39464,2.60413 -1.71722,3.20599 l -0.58652,1.0943 h 3.46625 c 1.90644,0 3.46625,-0.0121 3.46625,-0.027 z m 14.9904,-2.5766 v -9.75691 h 8.17897 8.17897 v 2.23541 2.23541 h -5.41758 -5.41758 v 1.84093 1.84092 h 3.89224 3.89224 v 2.23541 2.23541 h -3.89224 -3.89224 v 3.44516 3.44516 h -2.76139 -2.76139 z m 22.56449,7.52149 v -2.23541 h 2.13022 2.13021 v -5.28608 -5.28609 h -2.13021 -2.13022 v -2.23541 -2.23541 h 7.02182 7.02182 v 2.23541 2.23541 h -2.13022 -2.13021 v 5.28609 5.28608 h 2.13021 2.13022 v 2.23541 2.23541 h -7.02182 -7.02182 z m 27.50869,-5.28608 v -7.5215 h -3.65555 -3.65555 v -2.23541 -2.23541 h 10.15139 10.15139 v 2.23506 2.23506 l -3.7476,0.0135 -3.7476,0.0135 -0.0133,7.50835 -0.0133,7.50834 h -2.73491 -2.73492 z"
         id="path898" />
    </g>
  </g>
</svg>
